<svg width="69" height="68" viewBox="0 0 69 68" fill="none" xmlns="http://www.w3.org/2000/svg">
<g filter="url(#filter0_d_624_552)">
<path d="M40.6846 59.8656C52.6093 59.0543 62.1058 49.1542 62.8867 36.7265C63.0378 34.2954 63.0378 31.7765 62.8867 29.3454C62.1058 16.9206 52.6093 7.02639 40.6846 6.2092C36.566 5.93027 32.434 5.93027 28.3153 6.2092C16.3906 7.02346 6.89415 16.9206 6.11323 29.3483C5.96226 31.8062 5.96226 34.2715 6.11323 36.7294C6.39824 41.2547 8.34484 45.4461 10.6392 48.9843C11.9701 51.4594 11.0923 54.5495 9.70433 57.2529C8.7068 59.2007 8.20519 60.1731 8.60705 60.8761C9.00606 61.5791 9.90383 61.6025 11.6965 61.6464C15.2449 61.7343 17.6361 60.7033 19.5342 59.2651C20.6087 58.448 21.1474 58.0408 21.5179 57.994C21.8884 57.9471 22.6209 58.2576 24.0801 58.8727C25.3911 59.4292 26.9159 59.7719 28.3125 59.8685C32.3738 60.1438 36.6176 60.1438 40.6875 59.8685" fill="url(#paint0_linear_624_552)"/>
<path d="M40.6846 59.8656C52.6093 59.0543 62.1058 49.1542 62.8867 36.7265C63.0378 34.2954 63.0378 31.7765 62.8867 29.3454C62.1058 16.9206 52.6093 7.02639 40.6846 6.2092C36.566 5.93027 32.434 5.93027 28.3153 6.2092C16.3906 7.02346 6.89415 16.9206 6.11323 29.3483C5.96226 31.8062 5.96226 34.2715 6.11323 36.7294C6.39824 41.2547 8.34484 45.4461 10.6392 48.9843C11.9701 51.4594 11.0923 54.5495 9.70433 57.2529C8.7068 59.2007 8.20519 60.1731 8.60705 60.8761C9.00606 61.5791 9.90383 61.6025 11.6965 61.6464C15.2449 61.7343 17.6361 60.7033 19.5342 59.2651C20.6087 58.448 21.1474 58.0408 21.5179 57.994C21.8884 57.9471 22.6209 58.2576 24.0801 58.8727C25.3911 59.4292 26.9159 59.7719 28.3125 59.8685C32.3738 60.1438 36.6176 60.1438 40.6875 59.8685" stroke="white" stroke-width="4" stroke-linecap="round" stroke-linejoin="round"/>
<path d="M40.6846 59.8656C52.6093 59.0543 62.1058 49.1542 62.8867 36.7265C63.0378 34.2954 63.0378 31.7765 62.8867 29.3454C62.1058 16.9206 52.6093 7.02639 40.6846 6.2092C36.566 5.93027 32.434 5.93027 28.3153 6.2092C16.3906 7.02346 6.89415 16.9206 6.11323 29.3483C5.96226 31.8062 5.96226 34.2715 6.11323 36.7294C6.39824 41.2547 8.34484 45.4461 10.6392 48.9843C11.9701 51.4594 11.0923 54.5495 9.70433 57.2529C8.7068 59.2007 8.20519 60.1731 8.60705 60.8761C9.00606 61.5791 9.90383 61.6025 11.6965 61.6464C15.2449 61.7343 17.6361 60.7033 19.5342 59.2651C20.6087 58.448 21.1474 58.0408 21.5179 57.994C21.8884 57.9471 22.6209 58.2576 24.0801 58.8727C25.3911 59.4292 26.9159 59.7719 28.3125 59.8685C32.3738 60.1438 36.6176 60.1438 40.6875 59.8685" fill="url(#paint1_linear_624_552)"/>
<path d="M40.6846 59.8656C52.6093 59.0543 62.1058 49.1542 62.8867 36.7265C63.0378 34.2954 63.0378 31.7765 62.8867 29.3454C62.1058 16.9206 52.6093 7.02639 40.6846 6.2092C36.566 5.93027 32.434 5.93027 28.3153 6.2092C16.3906 7.02346 6.89415 16.9206 6.11323 29.3483C5.96226 31.8062 5.96226 34.2715 6.11323 36.7294C6.39824 41.2547 8.34484 45.4461 10.6392 48.9843C11.9701 51.4594 11.0923 54.5495 9.70433 57.2529C8.7068 59.2007 8.20519 60.1731 8.60705 60.8761C9.00606 61.5791 9.90383 61.6025 11.6965 61.6464C15.2449 61.7343 17.6361 60.7033 19.5342 59.2651C20.6087 58.448 21.1474 58.0408 21.5179 57.994C21.8884 57.9471 22.6209 58.2576 24.0801 58.8727C25.3911 59.4292 26.9159 59.7719 28.3125 59.8685C32.3738 60.1438 36.6176 60.1438 40.6875 59.8685" stroke="white" stroke-width="4" stroke-linecap="round" stroke-linejoin="round"/>
<path d="M40.6846 59.8656C52.6093 59.0543 62.1058 49.1542 62.8867 36.7265C63.0378 34.2954 63.0378 31.7765 62.8867 29.3454C62.1058 16.9206 52.6093 7.02639 40.6846 6.2092C36.566 5.93027 32.434 5.93027 28.3153 6.2092C16.3906 7.02346 6.89415 16.9206 6.11323 29.3483C5.96226 31.8062 5.96226 34.2715 6.11323 36.7294C6.39824 41.2547 8.34484 45.4461 10.6392 48.9844C11.9701 51.4594 11.0923 54.5495 9.70433 57.2529C8.7068 59.2007 8.20519 60.1731 8.60705 60.8761C9.00606 61.5791 9.90383 61.6025 11.6965 61.6464C15.2449 61.7343 17.6361 60.7033 19.5342 59.2652C20.6087 58.448 21.1474 58.0408 21.5179 57.994C21.8884 57.9471 22.6209 58.2576 24.0801 58.8727C25.3911 59.4292 26.9159 59.7719 28.3125 59.8685C32.3738 60.1439 36.6176 60.1439 40.6875 59.8685" fill="url(#paint2_linear_624_552)"/>
<path d="M40.6846 59.8656C52.6093 59.0543 62.1058 49.1542 62.8867 36.7265C63.0378 34.2954 63.0378 31.7765 62.8867 29.3454C62.1058 16.9206 52.6093 7.02639 40.6846 6.2092C36.566 5.93027 32.434 5.93027 28.3153 6.2092C16.3906 7.02346 6.89415 16.9206 6.11323 29.3483C5.96226 31.8062 5.96226 34.2715 6.11323 36.7294C6.39824 41.2547 8.34484 45.4461 10.6392 48.9844C11.9701 51.4594 11.0923 54.5495 9.70433 57.2529C8.7068 59.2007 8.20519 60.1731 8.60705 60.8761C9.00606 61.5791 9.90383 61.6025 11.6965 61.6464C15.2449 61.7343 17.6361 60.7033 19.5342 59.2652C20.6087 58.448 21.1474 58.0408 21.5179 57.994C21.8884 57.9471 22.6209 58.2576 24.0801 58.8727C25.3911 59.4292 26.9159 59.7719 28.3125 59.8685C32.3738 60.1439 36.6176 60.1439 40.6875 59.8685" stroke="white" stroke-width="4" stroke-linecap="round" stroke-linejoin="round"/>
<path d="M21 36L26.526 19.422C26.6647 19.0083 26.9299 18.6486 27.2841 18.3938C27.6383 18.1389 28.0636 18.0019 28.5 18.0019C28.9364 18.0019 29.3617 18.1389 29.7159 18.3938C30.0701 18.6486 30.3353 19.0083 30.474 19.422L36 36M45 18V36ZM24 30H33Z" fill="#FE6522"/>
<path d="M21 36L26.526 19.422C26.6647 19.0083 26.9299 18.6486 27.2841 18.3938C27.6383 18.1389 28.0636 18.0019 28.5 18.0019C28.9364 18.0019 29.3617 18.1389 29.7159 18.3938C30.0701 18.6486 30.3353 19.0083 30.474 19.422L36 36M45 18V36M24 30H33" stroke="white" stroke-width="4" stroke-linecap="round" stroke-linejoin="round"/>
<path d="M24.8708 47.016C24.7348 47.048 24.6468 47.052 24.6068 47.028C24.5748 46.996 24.5468 46.936 24.5228 46.848L24.2588 46.008C24.2108 45.848 24.2748 45.752 24.4508 45.72C25.0108 45.592 25.5188 45.464 25.9748 45.336C26.4388 45.208 26.8628 45.08 27.2468 44.952C27.6388 44.824 27.9948 44.692 28.3148 44.556C28.6428 44.42 28.9508 44.276 29.2388 44.124C29.3748 44.052 29.4268 43.992 29.3948 43.944C29.3628 43.896 29.2948 43.872 29.1908 43.872H25.3868C25.2988 43.872 25.2388 43.86 25.2068 43.836C25.1748 43.804 25.1588 43.74 25.1588 43.644V42.792C25.1588 42.704 25.1748 42.648 25.2068 42.624C25.2388 42.592 25.2988 42.576 25.3868 42.576H31.1108C31.5428 42.576 31.8308 42.656 31.9748 42.816C32.1268 42.976 32.1908 43.152 32.1668 43.344C32.1348 43.608 31.9988 43.872 31.7588 44.136C31.5188 44.4 31.1948 44.66 30.7868 44.916C31.1548 45.028 31.5628 45.14 32.0108 45.252C32.4668 45.364 32.9228 45.464 33.3788 45.552C33.4908 45.576 33.5628 45.608 33.5948 45.648C33.6268 45.688 33.6228 45.764 33.5828 45.876L33.3068 46.716C33.2668 46.82 33.2188 46.88 33.1628 46.896C33.1068 46.904 33.0348 46.9 32.9468 46.884C32.3468 46.764 31.7068 46.608 31.0268 46.416C30.3548 46.224 29.7068 46.012 29.0828 45.78C28.4588 46.036 27.7868 46.272 27.0668 46.488C26.3548 46.696 25.6228 46.872 24.8708 47.016ZM33.9908 48.876H29.6708V52.008C29.6708 52.168 29.5908 52.248 29.4308 52.248H28.2428C28.0828 52.248 28.0028 52.168 28.0028 52.008V48.876H23.6828C23.5788 48.876 23.5108 48.856 23.4788 48.816C23.4548 48.768 23.4428 48.7 23.4428 48.612V47.772C23.4428 47.684 23.4548 47.62 23.4788 47.58C23.5108 47.532 23.5788 47.508 23.6828 47.508H33.9908C34.1588 47.508 34.2428 47.596 34.2428 47.772V48.612C34.2428 48.788 34.1588 48.876 33.9908 48.876ZM30.3788 42.012H26.9948C26.9308 42.012 26.8708 42 26.8148 41.976C26.7668 41.944 26.7428 41.872 26.7428 41.76V40.956C26.7428 40.844 26.7668 40.776 26.8148 40.752C26.8708 40.72 26.9308 40.704 26.9948 40.704H30.3788C30.5548 40.704 30.6428 40.792 30.6428 40.968V41.748C30.6428 41.924 30.5548 42.012 30.3788 42.012ZM36.06 48.312C35.924 48.36 35.828 48.38 35.772 48.372C35.724 48.356 35.68 48.312 35.64 48.24L35.22 47.412C35.14 47.26 35.184 47.148 35.352 47.076C35.72 46.908 36.084 46.716 36.444 46.5C36.812 46.276 37.152 46.048 37.464 45.816C37.776 45.576 38.056 45.336 38.304 45.096C38.56 44.856 38.76 44.624 38.904 44.4C38.984 44.288 39.016 44.208 39 44.16C38.992 44.112 38.936 44.088 38.832 44.088H36C35.848 44.088 35.772 44.004 35.772 43.836V43.032C35.772 42.864 35.852 42.78 36.012 42.78H40.152C40.64 42.78 40.94 42.896 41.052 43.128C41.164 43.36 41.14 43.68 40.98 44.088C40.876 44.344 40.732 44.604 40.548 44.868C40.372 45.132 40.168 45.392 39.936 45.648C40.248 45.888 40.576 46.104 40.92 46.296C41.272 46.48 41.568 46.628 41.808 46.74C41.896 46.78 41.94 46.828 41.94 46.884C41.948 46.94 41.932 47.004 41.892 47.076L41.448 47.916C41.408 47.98 41.36 48.016 41.304 48.024C41.256 48.032 41.188 48.016 41.1 47.976C40.964 47.92 40.808 47.848 40.632 47.76C40.456 47.672 40.268 47.568 40.068 47.448C39.876 47.328 39.676 47.2 39.468 47.064C39.268 46.92 39.076 46.772 38.892 46.62C38.452 46.98 37.988 47.308 37.5 47.604C37.02 47.892 36.54 48.128 36.06 48.312ZM41.424 45.912C41.344 45.912 41.284 45.896 41.244 45.864C41.204 45.832 41.184 45.772 41.184 45.684V44.808C41.184 44.704 41.204 44.64 41.244 44.616C41.292 44.592 41.352 44.58 41.424 44.58H42.792V41.004C42.792 40.852 42.864 40.776 43.008 40.776H44.22C44.372 40.776 44.448 40.852 44.448 41.004V48.936C44.448 49.024 44.432 49.084 44.4 49.116C44.368 49.148 44.308 49.164 44.22 49.164H43.008C42.92 49.164 42.86 49.148 42.828 49.116C42.804 49.084 42.792 49.024 42.792 48.936V45.912H41.424ZM44.628 52.092H38.16C37.992 52.092 37.852 52.076 37.74 52.044C37.636 52.02 37.552 51.976 37.488 51.912C37.432 51.848 37.392 51.76 37.368 51.648C37.344 51.536 37.332 51.396 37.332 51.228V48.792C37.332 48.624 37.412 48.54 37.572 48.54H38.76C38.92 48.54 39 48.624 39 48.792V50.544C39 50.664 39.064 50.724 39.192 50.724H44.628C44.692 50.724 44.748 50.74 44.796 50.772C44.844 50.796 44.868 50.852 44.868 50.94V51.876C44.868 51.988 44.844 52.052 44.796 52.068C44.748 52.084 44.692 52.092 44.628 52.092ZM39.888 42.252H36.984C36.92 42.252 36.86 42.236 36.804 42.204C36.756 42.172 36.732 42.104 36.732 42V41.256C36.732 41.152 36.756 41.084 36.804 41.052C36.86 41.02 36.92 41.004 36.984 41.004H39.888C40.064 41.004 40.152 41.092 40.152 41.268V41.988C40.152 42.164 40.064 42.252 39.888 42.252Z" fill="white"/>
</g>
<defs>
<filter id="filter0_d_624_552" x="0" y="0" width="69" height="67.6516" filterUnits="userSpaceOnUse" color-interpolation-filters="sRGB">
<feFlood flood-opacity="0" result="BackgroundImageFix"/>
<feColorMatrix in="SourceAlpha" type="matrix" values="0 0 0 0 0 0 0 0 0 0 0 0 0 0 0 0 0 0 127 0" result="hardAlpha"/>
<feOffset/>
<feGaussianBlur stdDeviation="2"/>
<feComposite in2="hardAlpha" operator="out"/>
<feColorMatrix type="matrix" values="0 0 0 0 0 0 0 0 0 0 0 0 0 0 0 0 0 0 0.25 0"/>
<feBlend mode="normal" in2="BackgroundImageFix" result="effect1_dropShadow_624_552"/>
<feBlend mode="normal" in="SourceGraphic" in2="effect1_dropShadow_624_552" result="shape"/>
</filter>
<linearGradient id="paint0_linear_624_552" x1="34.5" y1="6" x2="34.5" y2="61.6516" gradientUnits="userSpaceOnUse">
<stop stop-color="#FE6522"/>
<stop offset="0.28" stop-color="#FE522F"/>
<stop offset="0.5" stop-color="#FE4338"/>
<stop offset="1" stop-color="#FDD631"/>
</linearGradient>
<linearGradient id="paint1_linear_624_552" x1="34.5" y1="6" x2="34.5" y2="61.6516" gradientUnits="userSpaceOnUse">
<stop stop-color="#FE6522"/>
<stop offset="0.28" stop-color="#FE522F"/>
<stop offset="0.5" stop-color="#FE4338"/>
<stop offset="1" stop-color="#FDD631"/>
</linearGradient>
<linearGradient id="paint2_linear_624_552" x1="34.5" y1="6" x2="34.5" y2="61.6516" gradientUnits="userSpaceOnUse">
<stop stop-color="#FE6522"/>
<stop offset="0.28" stop-color="#FE522F"/>
<stop offset="0.5" stop-color="#FE4338"/>
<stop offset="1" stop-color="#FDD631"/>
</linearGradient>
</defs>
</svg>
