<svg width="68" height="64" viewBox="0 0 68 64" fill="none" xmlns="http://www.w3.org/2000/svg">
<path d="M17.659 54.23H8.55398V50.165H17.524V51.155H9.78398V53.24H17.659V54.23ZM13.639 56.3V57.635H17.539V60.65H9.63398V62H17.944V62.945H8.43398V59.75H16.324V58.565H8.38898V57.635H12.409V56.3H6.91898V55.31H19.099V56.3H13.639ZM22.1578 58.865C22.7278 58.865 23.2628 58.86 23.7628 58.85C24.2728 58.83 24.7578 58.805 25.2178 58.775C25.6878 58.745 26.1528 58.705 26.6128 58.655C27.0728 58.595 27.5428 58.52 28.0228 58.43L28.1428 59.45C27.6328 59.54 27.1378 59.615 26.6578 59.675C26.1878 59.725 25.7028 59.77 25.2028 59.81C24.7128 59.84 24.2028 59.86 23.6728 59.87C23.1528 59.88 22.5878 59.885 21.9778 59.885H20.9428V54.62H25.7278V51.905H20.9128V50.9H26.9278V55.61H22.1578V58.865ZM31.5178 49.64V63.125H30.2878V55.835H27.7228V54.83H30.2878V49.64H31.5178ZM36.6166 56.495H43.4866V54.02H36.6166V56.495ZM46.1566 60.38V61.385H33.9616V60.38H39.4216V57.485H35.4016V50.615H36.6166V53.015H43.4866V50.615H44.6866V57.485H40.6666V60.38H46.1566ZM54.5705 51.11C54.5705 52.08 54.4505 53.02 54.2105 53.93C53.9805 54.83 53.6155 55.685 53.1155 56.495C52.6155 57.305 51.9705 58.055 51.1805 58.745C50.3905 59.435 49.4355 60.055 48.3155 60.605L47.6555 59.6C49.4655 58.74 50.8305 57.675 51.7505 56.405C52.6705 55.135 53.1955 53.7 53.3255 52.1H48.2705V51.11H54.5705ZM58.5155 49.655V63.11H57.2855V49.655H58.5155Z" fill="#818181"/>
<path d="M38 35L28 31.5L20.25 34.5C19.6944 34.7222 19.1806 34.66 18.7083 34.3133C18.2361 33.9667 18 33.5011 18 32.9167V9.58333C18 9.22222 18.1044 8.90278 18.3133 8.625C18.5222 8.34722 18.8067 8.13889 19.1667 8L28 5L38 8.5L45.75 5.5C46.3056 5.27778 46.8194 5.34056 47.2917 5.68833C47.7639 6.03611 48 6.50111 48 7.08333V30.4167C48 30.7778 47.8961 31.0972 47.6883 31.375C47.4806 31.6528 47.1956 31.8611 46.8333 32L38 35ZM36.3333 30.9167V11.4167L29.6667 9.08333V28.5833L36.3333 30.9167Z" fill="#D0D0D0"/>
</svg>
