<svg width="25" height="37" viewBox="0 0 25 37" fill="none" xmlns="http://www.w3.org/2000/svg">
<path d="M12.5001 35.5834C12.1015 35.5834 11.7598 35.4695 11.4751 35.2418C11.1904 35.014 10.9768 34.715 10.8345 34.3449C10.2935 32.7504 9.61015 31.2556 8.78446 29.8605C7.98723 28.4654 6.86258 26.8282 5.4105 24.949C3.95841 23.0699 2.77682 21.2761 1.86571 19.5678C0.983067 17.8595 0.541748 15.7952 0.541748 13.3751C0.541748 10.0438 1.69487 7.22508 4.00112 4.91883C6.33584 2.58411 9.16883 1.41675 12.5001 1.41675C15.8313 1.41675 18.6501 2.58411 20.9563 4.91883C23.2911 7.22508 24.4584 10.0438 24.4584 13.3751C24.4584 15.9661 23.9601 18.1299 22.9636 19.8667C21.9956 21.5751 20.8709 23.2692 19.5897 24.949C18.0522 26.999 16.8848 28.7074 16.0876 30.074C15.3188 31.4122 14.6782 32.8358 14.1657 34.3449C14.0233 34.7435 13.7956 35.0567 13.4824 35.2845C13.1977 35.4838 12.8702 35.5834 12.5001 35.5834ZM12.5001 17.6459C13.6959 17.6459 14.7067 17.2331 15.5324 16.4074C16.3581 15.5817 16.7709 14.5709 16.7709 13.3751C16.7709 12.1792 16.3581 11.1685 15.5324 10.3428C14.7067 9.51709 13.6959 9.10425 12.5001 9.10425C11.3042 9.10425 10.2935 9.51709 9.46779 10.3428C8.64209 11.1685 8.22925 12.1792 8.22925 13.3751C8.22925 14.5709 8.64209 15.5817 9.46779 16.4074C10.2935 17.2331 11.3042 17.6459 12.5001 17.6459Z" fill="#FF9C0E" stroke="white"/>
</svg>
