<svg width="54" height="54" viewBox="0 0 54 54" fill="none" xmlns="http://www.w3.org/2000/svg">
<g filter="url(#filter0_d_493_895)">
<circle cx="27" cy="27" r="23" fill="white"/>
<path d="M27 23.0731C24.8304 23.0731 23.0731 24.8304 23.0731 27C23.0731 29.1695 24.8304 30.9268 27 30.9268C29.1695 30.9268 30.9268 29.1695 30.9268 27C30.9268 24.8304 29.1695 23.0731 27 23.0731ZM35.7764 26.0182C35.554 24.0275 34.6613 22.1715 33.2449 20.755C31.8284 19.3386 29.9724 18.4459 27.9817 18.2235V17.1829C27.9817 16.6429 27.5399 16.2012 27 16.2012C26.46 16.2012 26.0182 16.6429 26.0182 17.1829V18.2235C24.0275 18.4459 22.1715 19.3386 20.755 20.755C19.3386 22.1715 18.4459 24.0275 18.2235 26.0182H17.1829C16.6429 26.0182 16.2012 26.46 16.2012 27C16.2012 27.5399 16.6429 27.9817 17.1829 27.9817H18.2235C18.4459 29.9724 19.3386 31.8284 20.755 33.2449C22.1715 34.6613 24.0275 35.554 26.0182 35.7764V36.817C26.0182 37.357 26.46 37.7987 27 37.7987C27.5399 37.7987 27.9817 37.357 27.9817 36.817V35.7764C29.9724 35.554 31.8284 34.6613 33.2449 33.2449C34.6613 31.8284 35.554 29.9724 35.7764 27.9817H36.817C37.357 27.9817 37.7987 27.5399 37.7987 27C37.7987 26.46 37.357 26.0182 36.817 26.0182H35.7764ZM27 33.8719C23.2007 33.8719 20.128 30.7992 20.128 27C20.128 23.2007 23.2007 20.128 27 20.128C30.7992 20.128 33.8719 23.2007 33.8719 27C33.8719 30.7992 30.7992 33.8719 27 33.8719Z" fill="#FF9C0E"/>
</g>
<defs>
<filter id="filter0_d_493_895" x="0" y="0" width="54" height="54" filterUnits="userSpaceOnUse" color-interpolation-filters="sRGB">
<feFlood flood-opacity="0" result="BackgroundImageFix"/>
<feColorMatrix in="SourceAlpha" type="matrix" values="0 0 0 0 0 0 0 0 0 0 0 0 0 0 0 0 0 0 127 0" result="hardAlpha"/>
<feOffset/>
<feGaussianBlur stdDeviation="2"/>
<feComposite in2="hardAlpha" operator="out"/>
<feColorMatrix type="matrix" values="0 0 0 0 0 0 0 0 0 0 0 0 0 0 0 0 0 0 0.25 0"/>
<feBlend mode="normal" in2="BackgroundImageFix" result="effect1_dropShadow_493_895"/>
<feBlend mode="normal" in="SourceGraphic" in2="effect1_dropShadow_493_895" result="shape"/>
</filter>
</defs>
</svg>
