<svg width="69" height="69" viewBox="0 0 69 69" fill="none" xmlns="http://www.w3.org/2000/svg">
<g filter="url(#filter0_d_666_530)">
<path d="M40.6846 61.1707C52.6093 60.3397 62.1058 50.1998 62.8867 37.4709C63.0378 34.981 63.0378 32.401 62.8867 29.911C62.1058 17.1852 52.6093 7.05126 40.6846 6.21427C36.566 5.92858 32.434 5.92858 28.3153 6.21427C16.3906 7.04826 6.89415 17.1852 6.11323 29.914C5.96226 32.4315 5.96226 34.9565 6.11323 37.4739C6.39824 42.1089 8.34484 46.4018 10.6392 50.0258C11.9701 52.5608 11.0923 55.7257 9.70433 58.4947C8.7068 60.4897 8.20519 61.4857 8.60705 62.2057C9.00606 62.9257 9.90383 62.9497 11.6965 62.9947C15.2449 63.0847 17.6361 62.0287 19.5342 60.5557C20.6087 59.7187 21.1474 59.3017 21.5179 59.2537C21.8884 59.2057 22.6209 59.5237 24.0801 60.1537C25.3911 60.7237 26.9159 61.0747 28.3125 61.1737C32.3738 61.4557 36.6176 61.4557 40.6875 61.1737" fill="url(#paint0_linear_666_530)"/>
<path d="M40.6846 61.1707C52.6093 60.3397 62.1058 50.1998 62.8867 37.4709C63.0378 34.981 63.0378 32.401 62.8867 29.911C62.1058 17.1852 52.6093 7.05126 40.6846 6.21427C36.566 5.92858 32.434 5.92858 28.3153 6.21427C16.3906 7.04826 6.89415 17.1852 6.11323 29.914C5.96226 32.4315 5.96226 34.9565 6.11323 37.4739C6.39824 42.1089 8.34484 46.4018 10.6392 50.0258C11.9701 52.5608 11.0923 55.7257 9.70433 58.4947C8.7068 60.4897 8.20519 61.4857 8.60705 62.2057C9.00606 62.9257 9.90383 62.9497 11.6965 62.9947C15.2449 63.0847 17.6361 62.0287 19.5342 60.5557C20.6087 59.7187 21.1474 59.3017 21.5179 59.2537C21.8884 59.2057 22.6209 59.5237 24.0801 60.1537C25.3911 60.7237 26.9159 61.0747 28.3125 61.1737C32.3738 61.4557 36.6176 61.4557 40.6875 61.1737" stroke="white" stroke-width="4" stroke-linecap="round" stroke-linejoin="round"/>
<rect x="11" y="11" width="47" height="45" rx="21" fill="white"/>
<path d="M43.4625 36.107H25.4445C25.2485 36.107 25.1295 36.072 25.0875 36.002C25.0455 35.932 25.0245 35.813 25.0245 35.645V34.28C25.0245 34.126 25.0525 34.021 25.1085 33.965C25.1645 33.895 25.2765 33.86 25.4445 33.86H33.0045V32.957C31.6885 32.803 30.6665 32.446 29.9385 31.886C29.2105 31.312 28.8465 30.626 28.8465 29.828C28.8465 29.24 29.0915 28.687 29.5815 28.169H27.1245C26.8445 28.169 26.7045 28.029 26.7045 27.749V26.468C26.7045 26.314 26.7395 26.209 26.8095 26.153C26.8795 26.097 26.9915 26.069 27.1455 26.069H41.8035C41.9575 26.069 42.0625 26.097 42.1185 26.153C42.1885 26.209 42.2235 26.314 42.2235 26.468V27.77C42.2235 28.036 42.0835 28.169 41.8035 28.169H39.3255C39.8295 28.673 40.0815 29.226 40.0815 29.828C40.0815 30.626 39.7175 31.312 38.9895 31.886C38.2615 32.446 37.2395 32.803 35.9235 32.957V33.86H43.4625C43.5885 33.86 43.6935 33.888 43.7775 33.944C43.8615 34 43.9035 34.112 43.9035 34.28V35.645C43.9035 35.953 43.7565 36.107 43.4625 36.107ZM39.4935 43.205H29.5395C29.1895 43.205 28.9095 43.184 28.6995 43.142C28.4895 43.1 28.3215 43.016 28.1955 42.89C28.0835 42.778 28.0065 42.624 27.9645 42.428C27.9225 42.232 27.9015 41.98 27.9015 41.672V38.522C27.9015 37.92 28.0065 37.514 28.2165 37.304C28.4405 37.094 28.8395 36.989 29.4135 36.989H39.3885C39.7385 36.989 40.0185 37.017 40.2285 37.073C40.4385 37.115 40.5995 37.192 40.7115 37.304C40.8375 37.416 40.9215 37.577 40.9635 37.787C41.0055 37.983 41.0265 38.235 41.0265 38.543V41.693C41.0265 42.001 40.9985 42.253 40.9425 42.449C40.9005 42.645 40.8165 42.799 40.6905 42.911C40.5785 43.023 40.4245 43.1 40.2285 43.142C40.0325 43.184 39.7875 43.205 39.4935 43.205ZM37.6455 25.271H31.2825C31.1705 25.271 31.0655 25.25 30.9675 25.208C30.8835 25.152 30.8415 25.033 30.8415 24.851V23.486C30.8415 23.304 30.8835 23.192 30.9675 23.15C31.0655 23.094 31.1705 23.066 31.2825 23.066H37.6455C37.9535 23.066 38.1075 23.213 38.1075 23.507V24.83C38.1075 24.984 38.0795 25.096 38.0235 25.166C37.9675 25.236 37.8415 25.271 37.6455 25.271ZM38.1075 39.467C38.1075 39.299 38.0305 39.215 37.8765 39.215H31.0515C30.8835 39.215 30.7995 39.306 30.7995 39.488V40.706C30.7995 40.874 30.8835 40.958 31.0515 40.958H37.8555C37.9535 40.958 38.0165 40.951 38.0445 40.937C38.0865 40.909 38.1075 40.825 38.1075 40.685V39.467ZM34.4535 28.274C33.5715 28.274 32.8995 28.421 32.4375 28.715C31.9895 29.009 31.7655 29.324 31.7655 29.66C31.7655 29.996 31.9895 30.318 32.4375 30.626C32.8995 30.92 33.5715 31.067 34.4535 31.067C35.3355 31.067 36.0075 30.92 36.4695 30.626C36.9315 30.318 37.1625 29.996 37.1625 29.66C37.1625 29.324 36.9315 29.009 36.4695 28.715C36.0075 28.421 35.3355 28.274 34.4535 28.274Z" fill="url(#paint1_linear_666_530)"/>
</g>
<defs>
<filter id="filter0_d_666_530" x="0" y="0" width="69" height="69" filterUnits="userSpaceOnUse" color-interpolation-filters="sRGB">
<feFlood flood-opacity="0" result="BackgroundImageFix"/>
<feColorMatrix in="SourceAlpha" type="matrix" values="0 0 0 0 0 0 0 0 0 0 0 0 0 0 0 0 0 0 127 0" result="hardAlpha"/>
<feOffset/>
<feGaussianBlur stdDeviation="2"/>
<feComposite in2="hardAlpha" operator="out"/>
<feColorMatrix type="matrix" values="0 0 0 0 0 0 0 0 0 0 0 0 0 0 0 0 0 0 0.25 0"/>
<feBlend mode="normal" in2="BackgroundImageFix" result="effect1_dropShadow_666_530"/>
<feBlend mode="normal" in="SourceGraphic" in2="effect1_dropShadow_666_530" result="shape"/>
</filter>
<linearGradient id="paint0_linear_666_530" x1="34.5" y1="6" x2="34.5" y2="63" gradientUnits="userSpaceOnUse">
<stop stop-color="#FE6522"/>
<stop offset="0.28" stop-color="#FE522F"/>
<stop offset="0.5" stop-color="#FE4338"/>
<stop offset="1" stop-color="#FDD631"/>
</linearGradient>
<linearGradient id="paint1_linear_666_530" x1="34.5" y1="23" x2="34.5" y2="43" gradientUnits="userSpaceOnUse">
<stop stop-color="#FE6522"/>
<stop offset="0.63" stop-color="#FE522F"/>
<stop offset="1" stop-color="#FE9E38"/>
</linearGradient>
</defs>
</svg>
