<svg width="30" height="38" viewBox="0 0 30 38" fill="none" xmlns="http://www.w3.org/2000/svg">
<path d="M3.07117 34.9C3.43784 34.9 3.79784 34.8967 4.15117 34.89C4.50451 34.8767 4.85784 34.86 5.21117 34.84C5.56451 34.8133 5.92451 34.78 6.29117 34.74C6.65784 34.6933 7.03784 34.64 7.43117 34.58L7.51117 35.25C7.10451 35.3167 6.71117 35.3733 6.33117 35.42C5.95784 35.46 5.58784 35.4933 5.22117 35.52C4.85451 35.54 4.48784 35.5567 4.12117 35.57C3.75451 35.5767 3.37784 35.58 2.99117 35.58H2.25117V32.14H5.55117V30.27H2.22117V29.6H6.38117V32.81H3.07117V34.9ZM9.09117 28.76V37.75H8.27117V28.76H9.09117ZM18.2904 33.96C17.9504 33.88 17.6104 33.7633 17.2704 33.61C16.9371 33.4567 16.6237 33.27 16.3304 33.05C16.0371 32.8233 15.7704 32.57 15.5304 32.29C15.2904 32.01 15.1004 31.7033 14.9604 31.37C14.8204 31.6967 14.6304 32 14.3904 32.28C14.1504 32.56 13.8837 32.8133 13.5904 33.04C13.2971 33.26 12.9837 33.45 12.6504 33.61C12.3171 33.7633 11.9804 33.88 11.6404 33.96L11.2704 33.28C11.6637 33.2 12.0537 33.0633 12.4404 32.87C12.8271 32.67 13.1737 32.43 13.4804 32.15C13.7937 31.8633 14.0471 31.5433 14.2404 31.19C14.4337 30.8367 14.5304 30.47 14.5304 30.09V29.4H15.3904V30.09C15.3904 30.47 15.4871 30.8367 15.6804 31.19C15.8737 31.5433 16.1237 31.8633 16.4304 32.15C16.7437 32.43 17.0937 32.67 17.4804 32.87C17.8737 33.07 18.2671 33.2067 18.6604 33.28L18.2904 33.96ZM19.0604 35.86V36.54H10.9304V35.86H19.0604ZM27.3296 34.27H21.1696V29.55H27.2396V30.21H21.9996V31.54H27.0396V32.19H21.9996V33.61H27.3296V34.27ZM28.2596 35.91V36.58H20.1196V35.91H28.2596Z" fill="#969696"/>
<line x1="1" y1="4.25" x2="28" y2="4.25" stroke="#B1B1B1" stroke-width="1.5"/>
<line x1="1" y1="13.25" x2="28" y2="13.25" stroke="#B1B1B1" stroke-width="1.5"/>
<line x1="1" y1="21.25" x2="28" y2="21.25" stroke="#B1B1B1" stroke-width="1.5"/>
</svg>
