<svg width="30" height="39" viewBox="0 0 30 39" fill="none" xmlns="http://www.w3.org/2000/svg">
<path d="M10 20.25L2.125 24.75V6.75L10 2.25M10 20.25L19 24.75M10 20.25V2.25M19 24.75L26.875 20.25V2.25L19 6.75M19 24.75V6.75M19 6.75L10 2.25" stroke="#B1B1B1" stroke-width="1.5" stroke-linecap="round" stroke-linejoin="round"/>
<path d="M9.53078 32.51C9.53078 32.89 9.59411 33.2667 9.72078 33.64C9.84745 34.0133 10.0174 34.3633 10.2308 34.69C10.4508 35.01 10.7041 35.2967 10.9908 35.55C11.2841 35.8033 11.5974 36 11.9308 36.14L11.4708 36.8C11.2108 36.68 10.9608 36.5267 10.7208 36.34C10.4874 36.1533 10.2674 35.9433 10.0608 35.71C9.86078 35.4767 9.68078 35.22 9.52078 34.94C9.36078 34.66 9.22745 34.3667 9.12078 34.06C9.02078 34.3867 8.89078 34.7 8.73078 35C8.57078 35.3 8.39078 35.58 8.19078 35.84C7.99078 36.0933 7.77411 36.3233 7.54078 36.53C7.30745 36.73 7.06411 36.8933 6.81078 37.02L6.33078 36.36C6.65078 36.2067 6.95411 35.9933 7.24078 35.72C7.53411 35.4467 7.78745 35.1367 8.00078 34.79C8.22078 34.4433 8.39411 34.0733 8.52078 33.68C8.64745 33.2867 8.71078 32.8967 8.71078 32.51V31.37H6.63078V30.69H11.6408V31.37H9.53078V32.51ZM13.6708 29.78V38.74H12.8508V29.78H13.6708ZM23.67 36.93V37.61H15.52V36.93H19.17V34.63H16.56V30.49H22.64V31.16H17.38V33.97H22.73V34.63H20V36.93H23.67Z" fill="#969696" fill-opacity="0.529412"/>
</svg>
