<svg width="75" height="85" viewBox="0 0 75 85" fill="none" xmlns="http://www.w3.org/2000/svg">
<path d="M58.0282 33.6067C58.4742 38.701 56.9214 43.7691 53.6983 47.7393C50.4751 51.7095 45.8342 54.2706 40.7569 54.8809L40.1212 54.9474L31.2334 57.0951C29.5739 57.2398 24.6275 73.0446 23.3169 72.0165C22.0062 70.9883 20.2359 52.1993 19.9813 50.553L19.9298 50.1241L19.1234 43.8481L18.7835 37.0401C18.3282 31.836 19.9589 26.6641 23.3169 22.6622C26.6748 18.6604 31.485 16.1564 36.6891 15.7011C41.8933 15.2458 47.0652 16.8765 51.067 20.2344C55.0689 23.5924 57.5729 28.4025 58.0282 33.6067ZM42.6262 30.2938C41.9657 29.7396 41.2025 29.3208 40.3802 29.0616C39.5579 28.8023 38.6926 28.7075 37.8336 28.7827C36.9747 28.8578 36.1389 29.1014 35.3741 29.4995C34.6093 29.8977 33.9304 30.4425 33.3762 31.103C32.822 31.7635 32.4033 32.5267 32.144 33.3491C31.8847 34.1714 31.79 35.0367 31.8651 35.8957C31.9403 36.7546 32.1839 37.5903 32.582 38.3551C32.9801 39.1199 33.525 39.7988 34.1855 40.353C35.5194 41.4724 37.2434 42.0159 38.9781 41.8642C40.7128 41.7124 42.3162 40.8777 43.4355 39.5438C44.5548 38.2098 45.0984 36.4859 44.9466 34.7512C44.7948 33.0165 43.9602 31.4131 42.6262 30.2938Z" fill="#FF9C0E"/>
<path d="M62.0819 19.7546C61.9023 19.7229 61.7258 19.6733 61.5525 19.6057C61.3793 19.5381 61.2123 19.4346 61.0517 19.2951L59.3558 17.8849C58.9036 17.5089 58.3664 17.3497 57.7444 17.4075C57.1223 17.4652 56.6241 17.7196 56.2497 18.1706L55.9043 18.5542L57.8411 20.1735C58.5195 20.7376 58.8997 21.4714 58.9819 22.3748C59.0641 23.2782 58.8225 24.069 58.257 24.7471L56.3461 27.077C56.9442 28.5158 57.3219 29.9995 57.4791 31.5281C57.6362 33.0566 57.5781 34.5923 57.3045 36.1353C56.5128 40.6256 54.2685 44.1656 50.5717 46.7554C46.8748 49.3452 54.8222 32.3656 50.3307 31.5721C45.8393 30.7787 48.0935 31.1199 45.5127 27.3891C42.9318 23.6583 40.0949 26.6219 40.8843 22.1283C41.6737 17.6346 28.0069 22.3082 31.6653 19.7516C35.3236 17.195 39.3959 16.3115 43.8821 17.1011L44.5826 17.2246L46.484 14.9486C47.0544 14.2343 47.7912 13.8368 48.6944 13.756C49.5976 13.6753 50.4032 13.9373 51.1114 14.5422L52.5664 15.7433L52.9118 15.3597C54.0104 13.9608 55.481 13.183 57.3235 13.0264C59.166 12.8697 60.7804 13.3766 62.1667 14.547L63.8182 15.8939C64.1098 16.1305 64.3334 16.4381 64.4889 16.8166C64.6444 17.1951 64.6872 17.5827 64.6172 17.9793C64.5095 18.59 64.2124 19.065 63.7259 19.4044C63.2394 19.7438 62.6914 19.8606 62.0819 19.7546ZM68.4528 21.4335C68.5605 20.8229 68.8576 20.3478 69.3442 20.0084C69.8307 19.669 70.3787 19.5523 70.9882 19.6582L73.1435 20.0383C73.7542 20.146 74.23 20.4432 74.5708 20.93C74.9117 21.4168 75.0277 21.9647 74.9188 22.5737C74.8099 23.1826 74.5127 23.6584 74.0271 24.0009C73.5415 24.3435 72.9936 24.4595 72.3834 24.3489L70.2281 23.9689C69.6174 23.8612 69.1424 23.5641 68.803 23.0776C68.4636 22.591 68.3468 22.043 68.4528 21.4335ZM60.4641 10.0244C59.8534 9.9167 59.3782 9.62031 59.0385 9.13521C58.6989 8.65011 58.5823 8.10138 58.6888 7.48901L59.0688 5.33369C59.1765 4.72301 59.4736 4.24797 59.9601 3.90855C60.4467 3.56913 60.9947 3.45242 61.6042 3.55841C62.2137 3.66439 62.6894 3.96163 63.0315 4.45011C63.3735 4.93859 63.4895 5.48648 63.3795 6.09377L62.9994 8.2491C62.8917 8.85977 62.5945 9.33554 62.1077 9.67639C61.6209 10.0172 61.073 10.1332 60.4641 10.0244ZM66.8037 14.0868C66.4782 13.622 66.3693 13.0843 66.477 12.4736C66.5846 11.8629 66.8709 11.3948 67.3357 11.0694L69.1739 9.78228C69.6387 9.45682 70.1764 9.34792 70.7871 9.4556C71.3978 9.56328 71.8658 9.84952 72.1913 10.3143C72.5168 10.7792 72.6257 11.3169 72.518 11.9276C72.4103 12.5383 72.1241 13.0063 71.6592 13.3318L69.8211 14.6189C69.3563 14.9443 68.8185 15.0532 68.2079 14.9456C67.5972 14.8379 67.1291 14.5516 66.8037 14.0868Z" fill="#FF9C0E"/>
<path d="M36.7787 63.7103L35.5878 67.1753C41.3771 68.4621 45.1198 70.9369 45.1198 73.4818C45.1198 76.8821 37.7797 80.6706 27.2445 80.6706C16.7092 80.6706 9.36921 76.8821 9.36921 73.4818C9.36921 70.9369 13.1118 68.4621 18.9034 67.1735L17.7125 63.7085C9.80939 65.4662 4.90039 69.2098 4.90039 73.4818C4.90039 79.5276 14.7162 84.2651 27.2445 84.2651C39.7728 84.2651 49.5886 79.5276 49.5886 73.4818C49.5886 69.2098 44.6796 65.4662 36.7787 63.7103Z" fill="#FF9C0E"/>
</svg>
